<?xml version="1.0" encoding="UTF-8"?>
<svg id="mermaid-1785504824366" width="100%" xmlns="http://www.w3.org/2000/svg" xmlns:xlink="http://www.w3.org/1999/xlink" style="max-width: 531.677734375px;" viewBox="-8 -8 531.677734375 1816.3125" role="graphics-document document" aria-roledescription="flowchart-v2"><rect width="100%" height="100%" fill="white"></rect><style>#mermaid-1785504824366{font-family:"trebuchet ms",verdana,arial,sans-serif;font-size:16px;fill:#333;}#mermaid-1785504824366 .error-icon{fill:#552222;}#mermaid-1785504824366 .error-text{fill:#552222;stroke:#552222;}#mermaid-1785504824366 .edge-thickness-normal{stroke-width:2px;}#mermaid-1785504824366 .edge-thickness-thick{stroke-width:3.5px;}#mermaid-1785504824366 .edge-pattern-solid{stroke-dasharray:0;}#mermaid-1785504824366 .edge-pattern-dashed{stroke-dasharray:3;}#mermaid-1785504824366 .edge-pattern-dotted{stroke-dasharray:2;}#mermaid-1785504824366 .marker{fill:#333333;stroke:#333333;}#mermaid-1785504824366 .marker.cross{stroke:#333333;}#mermaid-1785504824366 svg{font-family:"trebuchet ms",verdana,arial,sans-serif;font-size:16px;}#mermaid-1785504824366 .label{font-family:"trebuchet ms",verdana,arial,sans-serif;color:#333;}#mermaid-1785504824366 .cluster-label text{fill:#333;}#mermaid-1785504824366 .cluster-label span,#mermaid-1785504824366 p{color:#333;}#mermaid-1785504824366 .label text,#mermaid-1785504824366 span,#mermaid-1785504824366 p{fill:#333;color:#333;}#mermaid-1785504824366 .node rect,#mermaid-1785504824366 .node circle,#mermaid-1785504824366 .node ellipse,#mermaid-1785504824366 .node polygon,#mermaid-1785504824366 .node path{fill:#ECECFF;stroke:#9370DB;stroke-width:1px;}#mermaid-1785504824366 .flowchart-label text{text-anchor:middle;}#mermaid-1785504824366 .node .katex path{fill:#000;stroke:#000;stroke-width:1px;}#mermaid-1785504824366 .node .label{text-align:center;}#mermaid-1785504824366 .node.clickable{cursor:pointer;}#mermaid-1785504824366 .arrowheadPath{fill:#333333;}#mermaid-1785504824366 .edgePath .path{stroke:#333333;stroke-width:2.0px;}#mermaid-1785504824366 .flowchart-link{stroke:#333333;fill:none;}#mermaid-1785504824366 .edgeLabel{background-color:#e8e8e8;text-align:center;}#mermaid-1785504824366 .edgeLabel rect{opacity:0.5;background-color:#e8e8e8;fill:#e8e8e8;}#mermaid-1785504824366 .labelBkg{background-color:rgba(232, 232, 232, 0.5);}#mermaid-1785504824366 .cluster rect{fill:#ffffde;stroke:#aaaa33;stroke-width:1px;}#mermaid-1785504824366 .cluster text{fill:#333;}#mermaid-1785504824366 .cluster span,#mermaid-1785504824366 p{color:#333;}#mermaid-1785504824366 div.mermaidTooltip{position:absolute;text-align:center;max-width:200px;padding:2px;font-family:"trebuchet ms",verdana,arial,sans-serif;font-size:12px;background:hsl(80, 100%, 96.2745098039%);border:1px solid #aaaa33;border-radius:2px;pointer-events:none;z-index:100;}#mermaid-1785504824366 .flowchartTitleText{text-anchor:middle;font-size:18px;fill:#333;}#mermaid-1785504824366 :root{--mermaid-font-family:"trebuchet ms",verdana,arial,sans-serif;}</style><g><marker id="mermaid-1785504824366_flowchart-pointEnd" class="marker flowchart" viewBox="0 0 10 10" refX="6" refY="5" markerUnits="userSpaceOnUse" markerWidth="12" markerHeight="12" orient="auto"><path d="M 0 0 L 10 5 L 0 10 z" class="arrowMarkerPath" style="stroke-width: 1; stroke-dasharray: 1, 0;"></path></marker><marker id="mermaid-1785504824366_flowchart-pointStart" class="marker flowchart" viewBox="0 0 10 10" refX="4.5" refY="5" markerUnits="userSpaceOnUse" markerWidth="12" markerHeight="12" orient="auto"><path d="M 0 5 L 10 10 L 10 0 z" class="arrowMarkerPath" style="stroke-width: 1; stroke-dasharray: 1, 0;"></path></marker><marker id="mermaid-1785504824366_flowchart-circleEnd" class="marker flowchart" viewBox="0 0 10 10" refX="11" refY="5" markerUnits="userSpaceOnUse" markerWidth="11" markerHeight="11" orient="auto"><circle cx="5" cy="5" r="5" class="arrowMarkerPath" style="stroke-width: 1; stroke-dasharray: 1, 0;"></circle></marker><marker id="mermaid-1785504824366_flowchart-circleStart" class="marker flowchart" viewBox="0 0 10 10" refX="-1" refY="5" markerUnits="userSpaceOnUse" markerWidth="11" markerHeight="11" orient="auto"><circle cx="5" cy="5" r="5" class="arrowMarkerPath" style="stroke-width: 1; stroke-dasharray: 1, 0;"></circle></marker><marker id="mermaid-1785504824366_flowchart-crossEnd" class="marker cross flowchart" viewBox="0 0 11 11" refX="12" refY="5.2" markerUnits="userSpaceOnUse" markerWidth="11" markerHeight="11" orient="auto"><path d="M 1,1 l 9,9 M 10,1 l -9,9" class="arrowMarkerPath" style="stroke-width: 2; stroke-dasharray: 1, 0;"></path></marker><marker id="mermaid-1785504824366_flowchart-crossStart" class="marker cross flowchart" viewBox="0 0 11 11" refX="-1" refY="5.2" markerUnits="userSpaceOnUse" markerWidth="11" markerHeight="11" orient="auto"><path d="M 1,1 l 9,9 M 10,1 l -9,9" class="arrowMarkerPath" style="stroke-width: 2; stroke-dasharray: 1, 0;"></path></marker><g class="root"><g class="clusters"></g><g class="edgePaths"><path d="M324.768,33.5L324.768,37.667C324.768,41.833,324.768,50.167,324.768,57.617C324.768,65.067,324.768,71.633,324.768,74.917L324.768,78.2" id="L-A-B-0" class="edge-thickness-normal edge-pattern-solid flowchart-link LS-A LE-B" style="fill:none;" marker-end="url(#mermaid-1785504824366_flowchart-pointEnd)"></path><path d="M324.768,117L324.768,121.167C324.768,125.333,324.768,133.667,324.768,141.117C324.768,148.567,324.768,155.133,324.768,158.417L324.768,161.7" id="L-B-C-0" class="edge-thickness-normal edge-pattern-solid flowchart-link LS-B LE-C" style="fill:none;" marker-end="url(#mermaid-1785504824366_flowchart-pointEnd)"></path><path d="M324.768,200.5L324.768,204.667C324.768,208.833,324.768,217.167,324.768,224.617C324.768,232.067,324.768,238.633,324.768,241.917L324.768,245.2" id="L-C-D-0" class="edge-thickness-normal edge-pattern-solid flowchart-link LS-C LE-D" style="fill:none;" marker-end="url(#mermaid-1785504824366_flowchart-pointEnd)"></path><path d="M324.768,284L324.768,288.167C324.768,292.333,324.768,300.667,324.768,308.117C324.768,315.567,324.768,322.133,324.768,325.417L324.768,328.7" id="L-D-E-0" class="edge-thickness-normal edge-pattern-solid flowchart-link LS-D LE-E" style="fill:none;" marker-end="url(#mermaid-1785504824366_flowchart-pointEnd)"></path><path d="M324.768,367.5L324.768,371.667C324.768,375.833,324.768,384.167,324.768,391.617C324.768,399.067,324.768,405.633,324.768,408.917L324.768,412.2" id="L-E-F-0" class="edge-thickness-normal edge-pattern-solid flowchart-link LS-E LE-F" style="fill:none;" marker-end="url(#mermaid-1785504824366_flowchart-pointEnd)"></path><path d="M289.095,451L280.221,455.167C271.347,459.333,253.599,467.667,244.791,475.2C235.984,482.734,236.116,489.467,236.182,492.834L236.248,496.201" id="L-F-G-0" class="edge-thickness-normal edge-pattern-solid flowchart-link LS-F LE-G" style="fill:none;" marker-end="url(#mermaid-1785504824366_flowchart-pointEnd)"></path><path d="M225.612,612.682L223.925,620.097C222.238,627.512,218.864,642.342,217.177,654.582C215.49,666.822,215.49,676.472,215.49,681.297L215.49,686.122" id="L-G-H-0" class="edge-thickness-normal edge-pattern-solid flowchart-link LS-G LE-H" style="fill:none;" marker-end="url(#mermaid-1785504824366_flowchart-pointEnd)"></path><path d="M268.929,590.845L281.629,601.899C294.329,612.954,319.729,635.063,341.615,651.386C363.501,667.71,381.873,678.247,391.059,683.516L400.245,688.785" id="L-G-I-0" class="edge-thickness-normal edge-pattern-solid flowchart-link LS-G LE-I" style="fill:none;" marker-end="url(#mermaid-1785504824366_flowchart-pointEnd)"></path><path d="M438.873,691.422L440.518,685.714C442.163,680.005,445.454,668.589,447.099,647.012C448.744,625.435,448.744,593.698,448.744,563.503C448.744,533.307,448.744,504.654,437.208,486.442C425.673,468.23,402.601,460.461,391.065,456.576L379.53,452.691" id="L-I-F-0" class="edge-thickness-normal edge-pattern-solid flowchart-link LS-I LE-F" style="fill:none;" marker-end="url(#mermaid-1785504824366_flowchart-pointEnd)"></path><path d="M215.49,724.922L215.49,729.089C215.49,733.255,215.49,741.589,215.49,749.039C215.49,756.489,215.49,763.055,215.49,766.339L215.49,769.622" id="L-H-J-0" class="edge-thickness-normal edge-pattern-solid flowchart-link LS-H LE-J" style="fill:none;" marker-end="url(#mermaid-1785504824366_flowchart-pointEnd)"></path><path d="M215.49,808.422L215.49,812.589C215.49,816.755,215.49,825.089,215.49,832.539C215.49,839.989,215.49,846.555,215.49,849.839L215.49,853.122" id="L-J-K-0" class="edge-thickness-normal edge-pattern-solid flowchart-link LS-J LE-K" style="fill:none;" marker-end="url(#mermaid-1785504824366_flowchart-pointEnd)"></path><path d="M215.49,891.922L215.49,896.089C215.49,900.255,215.49,908.589,215.49,916.039C215.49,923.489,215.49,930.055,215.49,933.339L215.49,936.622" id="L-K-L-0" class="edge-thickness-normal edge-pattern-solid flowchart-link LS-K LE-L" style="fill:none;" marker-end="url(#mermaid-1785504824366_flowchart-pointEnd)"></path><path d="M215.49,975.422L215.49,979.589C215.49,983.755,215.49,992.089,215.49,999.539C215.49,1006.989,215.49,1013.555,215.49,1016.839L215.49,1020.122" id="L-L-M-0" class="edge-thickness-normal edge-pattern-solid flowchart-link LS-L LE-M" style="fill:none;" marker-end="url(#mermaid-1785504824366_flowchart-pointEnd)"></path><path d="M215.49,1058.922L215.49,1063.089C215.49,1067.255,215.49,1075.589,215.49,1083.039C215.49,1090.489,215.49,1097.055,215.49,1100.339L215.49,1103.622" id="L-M-N-0" class="edge-thickness-normal edge-pattern-solid flowchart-link LS-M LE-N" style="fill:none;" marker-end="url(#mermaid-1785504824366_flowchart-pointEnd)"></path><path d="M215.49,1142.422L215.49,1146.589C215.49,1150.755,215.49,1159.089,215.556,1166.622C215.622,1174.156,215.754,1180.889,215.82,1184.256L215.886,1187.623" id="L-N-O-0" class="edge-thickness-normal edge-pattern-solid flowchart-link LS-N LE-O" style="fill:none;" marker-end="url(#mermaid-1785504824366_flowchart-pointEnd)"></path><path d="M174.53,1323.352L162.687,1335.887C150.843,1348.422,127.156,1373.492,115.312,1390.852C103.469,1408.212,103.469,1417.863,103.469,1422.688L103.469,1427.513" id="L-O-P-0" class="edge-thickness-normal edge-pattern-solid flowchart-link LS-O LE-P" style="fill:none;" marker-end="url(#mermaid-1785504824366_flowchart-pointEnd)"></path><path d="M257.45,1323.352L269.127,1335.887C280.804,1348.422,304.158,1373.492,315.835,1390.852C327.512,1408.212,327.512,1417.863,327.512,1422.688L327.512,1427.513" id="L-O-Q-0" class="edge-thickness-normal edge-pattern-solid flowchart-link LS-O LE-Q" style="fill:none;" marker-end="url(#mermaid-1785504824366_flowchart-pointEnd)"></path><path d="M103.469,1466.313L103.469,1470.479C103.469,1474.646,103.469,1482.979,103.469,1490.429C103.469,1497.879,103.469,1504.446,103.469,1507.729L103.469,1511.013" id="L-P-R-0" class="edge-thickness-normal edge-pattern-solid flowchart-link LS-P LE-R" style="fill:none;" marker-end="url(#mermaid-1785504824366_flowchart-pointEnd)"></path><path d="M103.469,1549.813L103.469,1553.979C103.469,1558.146,103.469,1566.479,103.469,1573.929C103.469,1581.379,103.469,1587.946,103.469,1591.229L103.469,1594.513" id="L-R-S-0" class="edge-thickness-normal edge-pattern-solid flowchart-link LS-R LE-S" style="fill:none;" marker-end="url(#mermaid-1785504824366_flowchart-pointEnd)"></path><path d="M103.469,1633.313L103.469,1637.479C103.469,1641.646,103.469,1649.979,103.469,1657.429C103.469,1664.879,103.469,1671.446,103.469,1674.729L103.469,1678.013" id="L-S-T-0" class="edge-thickness-normal edge-pattern-solid flowchart-link LS-S LE-T" style="fill:none;" marker-end="url(#mermaid-1785504824366_flowchart-pointEnd)"></path><path d="M103.469,1716.813L103.469,1720.979C103.469,1725.146,103.469,1733.479,103.469,1740.929C103.469,1748.379,103.469,1754.946,103.469,1758.229L103.469,1761.513" id="L-T-U-0" class="edge-thickness-normal edge-pattern-solid flowchart-link LS-T LE-U" style="fill:none;" marker-end="url(#mermaid-1785504824366_flowchart-pointEnd)"></path></g><g class="edgeLabels"><g class="edgeLabel"><g class="label" transform="translate(0, 0)"><foreignObject width="0" height="0"><div xmlns="http://www.w3.org/1999/xhtml" style="display: inline-block; white-space: nowrap;"><span class="edgeLabel"></span></div></foreignObject></g></g><g class="edgeLabel"><g class="label" transform="translate(0, 0)"><foreignObject width="0" height="0"><div xmlns="http://www.w3.org/1999/xhtml" style="display: inline-block; white-space: nowrap;"><span class="edgeLabel"></span></div></foreignObject></g></g><g class="edgeLabel"><g class="label" transform="translate(0, 0)"><foreignObject width="0" height="0"><div xmlns="http://www.w3.org/1999/xhtml" style="display: inline-block; white-space: nowrap;"><span class="edgeLabel"></span></div></foreignObject></g></g><g class="edgeLabel"><g class="label" transform="translate(0, 0)"><foreignObject width="0" height="0"><div xmlns="http://www.w3.org/1999/xhtml" style="display: inline-block; white-space: nowrap;"><span class="edgeLabel"></span></div></foreignObject></g></g><g class="edgeLabel"><g class="label" transform="translate(0, 0)"><foreignObject width="0" height="0"><div xmlns="http://www.w3.org/1999/xhtml" style="display: inline-block; white-space: nowrap;"><span class="edgeLabel"></span></div></foreignObject></g></g><g class="edgeLabel"><g class="label" transform="translate(0, 0)"><foreignObject width="0" height="0"><div xmlns="http://www.w3.org/1999/xhtml" style="display: inline-block; white-space: nowrap;"><span class="edgeLabel"></span></div></foreignObject></g></g><g class="edgeLabel" transform="translate(215.490234375, 657.171875)"><g class="label" transform="translate(-11.32421875, -9.25)"><foreignObject width="22.6484375" height="18.5"><div xmlns="http://www.w3.org/1999/xhtml" style="display: inline-block; white-space: nowrap;"><span class="edgeLabel">Yes</span></div></foreignObject></g></g><g class="edgeLabel" transform="translate(345.12890625, 657.171875)"><g class="label" transform="translate(-9.3984375, -9.25)"><foreignObject width="18.796875" height="18.5"><div xmlns="http://www.w3.org/1999/xhtml" style="display: inline-block; white-space: nowrap;"><span class="edgeLabel">No</span></div></foreignObject></g></g><g class="edgeLabel"><g class="label" transform="translate(0, 0)"><foreignObject width="0" height="0"><div xmlns="http://www.w3.org/1999/xhtml" style="display: inline-block; white-space: nowrap;"><span class="edgeLabel"></span></div></foreignObject></g></g><g class="edgeLabel"><g class="label" transform="translate(0, 0)"><foreignObject width="0" height="0"><div xmlns="http://www.w3.org/1999/xhtml" style="display: inline-block; white-space: nowrap;"><span class="edgeLabel"></span></div></foreignObject></g></g><g class="edgeLabel"><g class="label" transform="translate(0, 0)"><foreignObject width="0" height="0"><div xmlns="http://www.w3.org/1999/xhtml" style="display: inline-block; white-space: nowrap;"><span class="edgeLabel"></span></div></foreignObject></g></g><g class="edgeLabel"><g class="label" transform="translate(0, 0)"><foreignObject width="0" height="0"><div xmlns="http://www.w3.org/1999/xhtml" style="display: inline-block; white-space: nowrap;"><span class="edgeLabel"></span></div></foreignObject></g></g><g class="edgeLabel"><g class="label" transform="translate(0, 0)"><foreignObject width="0" height="0"><div xmlns="http://www.w3.org/1999/xhtml" style="display: inline-block; white-space: nowrap;"><span class="edgeLabel"></span></div></foreignObject></g></g><g class="edgeLabel"><g class="label" transform="translate(0, 0)"><foreignObject width="0" height="0"><div xmlns="http://www.w3.org/1999/xhtml" style="display: inline-block; white-space: nowrap;"><span class="edgeLabel"></span></div></foreignObject></g></g><g class="edgeLabel"><g class="label" transform="translate(0, 0)"><foreignObject width="0" height="0"><div xmlns="http://www.w3.org/1999/xhtml" style="display: inline-block; white-space: nowrap;"><span class="edgeLabel"></span></div></foreignObject></g></g><g class="edgeLabel" transform="translate(103.46875, 1398.5625)"><g class="label" transform="translate(-24.6328125, -9.25)"><foreignObject width="49.265625" height="18.5"><div xmlns="http://www.w3.org/1999/xhtml" style="display: inline-block; white-space: nowrap;"><span class="edgeLabel">Accept</span></div></foreignObject></g></g><g class="edgeLabel" transform="translate(327.51171875, 1398.5625)"><g class="label" transform="translate(-23.125, -9.25)"><foreignObject width="46.25" height="18.5"><div xmlns="http://www.w3.org/1999/xhtml" style="display: inline-block; white-space: nowrap;"><span class="edgeLabel">Reject</span></div></foreignObject></g></g><g class="edgeLabel"><g class="label" transform="translate(0, 0)"><foreignObject width="0" height="0"><div xmlns="http://www.w3.org/1999/xhtml" style="display: inline-block; white-space: nowrap;"><span class="edgeLabel"></span></div></foreignObject></g></g><g class="edgeLabel"><g class="label" transform="translate(0, 0)"><foreignObject width="0" height="0"><div xmlns="http://www.w3.org/1999/xhtml" style="display: inline-block; white-space: nowrap;"><span class="edgeLabel"></span></div></foreignObject></g></g><g class="edgeLabel"><g class="label" transform="translate(0, 0)"><foreignObject width="0" height="0"><div xmlns="http://www.w3.org/1999/xhtml" style="display: inline-block; white-space: nowrap;"><span class="edgeLabel"></span></div></foreignObject></g></g><g class="edgeLabel"><g class="label" transform="translate(0, 0)"><foreignObject width="0" height="0"><div xmlns="http://www.w3.org/1999/xhtml" style="display: inline-block; white-space: nowrap;"><span class="edgeLabel"></span></div></foreignObject></g></g></g><g class="nodes"><g class="node default default flowchart-label" id="flowchart-A-58" data-node="true" data-id="A" transform="translate(324.767578125, 16.75)"><rect class="basic label-container" style="" rx="0" ry="0" x="-77.93359375" y="-16.75" width="155.8671875" height="33.5"></rect><g class="label" style="" transform="translate(-70.43359375, -9.25)"><rect></rect><foreignObject width="140.8671875" height="18.5"><div xmlns="http://www.w3.org/1999/xhtml" style="display: inline-block; white-space: nowrap;"><span class="nodeLabel">Partner registration</span></div></foreignObject></g></g><g class="node default default flowchart-label" id="flowchart-B-59" data-node="true" data-id="B" transform="translate(324.767578125, 100.25)"><rect class="basic label-container" style="" rx="0" ry="0" x="-91.29296875" y="-16.75" width="182.5859375" height="33.5"></rect><g class="label" style="" transform="translate(-83.79296875, -9.25)"><rect></rect><foreignObject width="167.5859375" height="18.5"><div xmlns="http://www.w3.org/1999/xhtml" style="display: inline-block; white-space: nowrap;"><span class="nodeLabel">Mobile OTP verification</span></div></foreignObject></g></g><g class="node default default flowchart-label" id="flowchart-C-61" data-node="true" data-id="C" transform="translate(324.767578125, 183.75)"><rect class="basic label-container" style="" rx="0" ry="0" x="-178.26953125" y="-16.75" width="356.5390625" height="33.5"></rect><g class="label" style="" transform="translate(-170.76953125, -9.25)"><rect></rect><foreignObject width="341.5390625" height="18.5"><div xmlns="http://www.w3.org/1999/xhtml" style="display: inline-block; white-space: nowrap;"><span class="nodeLabel">KYC document upload: Aadhaar / PAN / License</span></div></foreignObject></g></g><g class="node default default flowchart-label" id="flowchart-D-63" data-node="true" data-id="D" transform="translate(324.767578125, 267.25)"><rect class="basic label-container" style="" rx="0" ry="0" x="-90.7421875" y="-16.75" width="181.484375" height="33.5"></rect><g class="label" style="" transform="translate(-83.2421875, -9.25)"><rect></rect><foreignObject width="166.484375" height="18.5"><div xmlns="http://www.w3.org/1999/xhtml" style="display: inline-block; white-space: nowrap;"><span class="nodeLabel">Bank details for payout</span></div></foreignObject></g></g><g class="node default default flowchart-label" id="flowchart-E-65" data-node="true" data-id="E" transform="translate(324.767578125, 350.75)"><rect class="basic label-container" style="" rx="0" ry="0" x="-111.63671875" y="-16.75" width="223.2734375" height="33.5"></rect><g class="label" style="" transform="translate(-104.13671875, -9.25)"><rect></rect><foreignObject width="208.2734375" height="18.5"><div xmlns="http://www.w3.org/1999/xhtml" style="display: inline-block; white-space: nowrap;"><span class="nodeLabel">Background verification #160</span></div></foreignObject></g></g><g class="node default default flowchart-label" id="flowchart-F-67" data-node="true" data-id="F" transform="translate(324.767578125, 434.25)"><rect class="basic label-container" style="" rx="0" ry="0" x="-56.3671875" y="-16.75" width="112.734375" height="33.5"></rect><g class="label" style="" transform="translate(-48.8671875, -9.25)"><rect></rect><foreignObject width="97.734375" height="18.5"><div xmlns="http://www.w3.org/1999/xhtml" style="display: inline-block; white-space: nowrap;"><span class="nodeLabel">Admin review</span></div></foreignObject></g></g><g class="node default default flowchart-label" id="flowchart-G-69" data-node="true" data-id="G" transform="translate(235.8515625, 561.9609375)"><polygon points="60.9609375,0 121.921875,-60.9609375 60.9609375,-121.921875 0,-60.9609375" class="label-container" transform="translate(-60.9609375,60.9609375)" style=""></polygon><g class="label" style="" transform="translate(-36.7109375, -9.25)"><rect></rect><foreignObject width="73.421875" height="18.5"><div xmlns="http://www.w3.org/1999/xhtml" style="display: inline-block; white-space: nowrap;"><span class="nodeLabel">Approved?</span></div></foreignObject></g></g><g class="node default default flowchart-label" id="flowchart-H-71" data-node="true" data-id="H" transform="translate(215.490234375, 708.171875)"><rect class="basic label-container" style="" rx="0" ry="0" x="-86.921875" y="-16.75" width="173.84375" height="33.5"></rect><g class="label" style="" transform="translate(-79.421875, -9.25)"><rect></rect><foreignObject width="158.84375" height="18.5"><div xmlns="http://www.w3.org/1999/xhtml" style="display: inline-block; white-space: nowrap;"><span class="nodeLabel">Create partner profile</span></div></foreignObject></g></g><g class="node default default flowchart-label" id="flowchart-I-73" data-node="true" data-id="I" transform="translate(434.044921875, 708.171875)"><rect class="basic label-container" style="" rx="0" ry="0" x="-81.6328125" y="-16.75" width="163.265625" height="33.5"></rect><g class="label" style="" transform="translate(-74.1328125, -9.25)"><rect></rect><foreignObject width="148.265625" height="18.5"><div xmlns="http://www.w3.org/1999/xhtml" style="display: inline-block; white-space: nowrap;"><span class="nodeLabel">Resubmit documents</span></div></foreignObject></g></g><g class="node default default flowchart-label" id="flowchart-J-76" data-node="true" data-id="J" transform="translate(215.490234375, 791.671875)"><rect class="basic label-container" style="" rx="0" ry="0" x="-96.62109375" y="-16.75" width="193.2421875" height="33.5"></rect><g class="label" style="" transform="translate(-89.12109375, -9.25)"><rect></rect><foreignObject width="178.2421875" height="18.5"><div xmlns="http://www.w3.org/1999/xhtml" style="display: inline-block; white-space: nowrap;"><span class="nodeLabel">Select service categories</span></div></foreignObject></g></g><g class="node default default flowchart-label" id="flowchart-K-78" data-node="true" data-id="K" transform="translate(215.490234375, 875.171875)"><rect class="basic label-container" style="" rx="0" ry="0" x="-121.765625" y="-16.75" width="243.53125" height="33.5"></rect><g class="label" style="" transform="translate(-114.265625, -9.25)"><rect></rect><foreignObject width="228.53125" height="18.5"><div xmlns="http://www.w3.org/1999/xhtml" style="display: inline-block; white-space: nowrap;"><span class="nodeLabel">Set service area / serviceability</span></div></foreignObject></g></g><g class="node default default flowchart-label" id="flowchart-L-80" data-node="true" data-id="L" transform="translate(215.490234375, 958.671875)"><rect class="basic label-container" style="" rx="0" ry="0" x="-45.76953125" y="-16.75" width="91.5390625" height="33.5"></rect><g class="label" style="" transform="translate(-38.26953125, -9.25)"><rect></rect><foreignObject width="76.5390625" height="18.5"><div xmlns="http://www.w3.org/1999/xhtml" style="display: inline-block; white-space: nowrap;"><span class="nodeLabel">Set pricing</span></div></foreignObject></g></g><g class="node default default flowchart-label" id="flowchart-M-82" data-node="true" data-id="M" transform="translate(215.490234375, 1042.171875)"><rect class="basic label-container" style="" rx="0" ry="0" x="-32.53515625" y="-16.75" width="65.0703125" height="33.5"></rect><g class="label" style="" transform="translate(-25.03515625, -9.25)"><rect></rect><foreignObject width="50.0703125" height="18.5"><div xmlns="http://www.w3.org/1999/xhtml" style="display: inline-block; white-space: nowrap;"><span class="nodeLabel">Go live</span></div></foreignObject></g></g><g class="node default default flowchart-label" id="flowchart-N-84" data-node="true" data-id="N" transform="translate(215.490234375, 1125.671875)"><rect class="basic label-container" style="" rx="0" ry="0" x="-94.72265625" y="-16.75" width="189.4453125" height="33.5"></rect><g class="label" style="" transform="translate(-87.22265625, -9.25)"><rect></rect><foreignObject width="174.4453125" height="18.5"><div xmlns="http://www.w3.org/1999/xhtml" style="display: inline-block; white-space: nowrap;"><span class="nodeLabel">Receive booking request</span></div></foreignObject></g></g><g class="node default default flowchart-label" id="flowchart-O-86" data-node="true" data-id="O" transform="translate(215.490234375, 1278.3671875)"><polygon points="85.9453125,0 171.890625,-85.9453125 85.9453125,-171.890625 0,-85.9453125" class="label-container" transform="translate(-85.9453125,85.9453125)" style=""></polygon><g class="label" style="" transform="translate(-61.6953125, -9.25)"><rect></rect><foreignObject width="123.390625" height="18.5"><div xmlns="http://www.w3.org/1999/xhtml" style="display: inline-block; white-space: nowrap;"><span class="nodeLabel">Accept or reject?</span></div></foreignObject></g></g><g class="node default default flowchart-label" id="flowchart-P-88" data-node="true" data-id="P" transform="translate(103.46875, 1449.5625)"><rect class="basic label-container" style="" rx="0" ry="0" x="-63.703125" y="-16.75" width="127.40625" height="33.5"></rect><g class="label" style="" transform="translate(-56.203125, -9.25)"><rect></rect><foreignObject width="112.40625" height="18.5"><div xmlns="http://www.w3.org/1999/xhtml" style="display: inline-block; white-space: nowrap;"><span class="nodeLabel">Perform service</span></div></foreignObject></g></g><g class="node default default flowchart-label" id="flowchart-Q-90" data-node="true" data-id="Q" transform="translate(327.51171875, 1449.5625)"><rect class="basic label-container" style="" rx="0" ry="0" x="-110.33984375" y="-16.75" width="220.6796875" height="33.5"></rect><g class="label" style="" transform="translate(-102.83984375, -9.25)"><rect></rect><foreignObject width="205.6796875" height="18.5"><div xmlns="http://www.w3.org/1999/xhtml" style="display: inline-block; white-space: nowrap;"><span class="nodeLabel">Booking returns to pool #159</span></div></foreignObject></g></g><g class="node default default flowchart-label" id="flowchart-R-92" data-node="true" data-id="R" transform="translate(103.46875, 1533.0625)"><rect class="basic label-container" style="" rx="0" ry="0" x="-65" y="-16.75" width="130" height="33.5"></rect><g class="label" style="" transform="translate(-57.5, -9.25)"><rect></rect><foreignObject width="115" height="18.5"><div xmlns="http://www.w3.org/1999/xhtml" style="display: inline-block; white-space: nowrap;"><span class="nodeLabel">Mark completed</span></div></foreignObject></g></g><g class="node default default flowchart-label" id="flowchart-S-94" data-node="true" data-id="S" transform="translate(103.46875, 1616.5625)"><rect class="basic label-container" style="" rx="0" ry="0" x="-79.90625" y="-16.75" width="159.8125" height="33.5"></rect><g class="label" style="" transform="translate(-72.40625, -9.25)"><rect></rect><foreignObject width="144.8125" height="18.5"><div xmlns="http://www.w3.org/1999/xhtml" style="display: inline-block; white-space: nowrap;"><span class="nodeLabel">Payment settlement</span></div></foreignObject></g></g><g class="node default default flowchart-label" id="flowchart-T-96" data-node="true" data-id="T" transform="translate(103.46875, 1700.0625)"><rect class="basic label-container" style="" rx="0" ry="0" x="-62.21875" y="-16.75" width="124.4375" height="33.5"></rect><g class="label" style="" transform="translate(-54.71875, -9.25)"><rect></rect><foreignObject width="109.4375" height="18.5"><div xmlns="http://www.w3.org/1999/xhtml" style="display: inline-block; white-space: nowrap;"><span class="nodeLabel">Wallet updated</span></div></foreignObject></g></g><g class="node default default flowchart-label" id="flowchart-U-98" data-node="true" data-id="U" transform="translate(103.46875, 1783.5625)"><rect class="basic label-container" style="" rx="0" ry="0" x="-103.46875" y="-16.75" width="206.9375" height="33.5"></rect><g class="label" style="" transform="translate(-95.96875, -9.25)"><rect></rect><foreignObject width="191.9375" height="18.5"><div xmlns="http://www.w3.org/1999/xhtml" style="display: inline-block; white-space: nowrap;"><span class="nodeLabel">Withdraw earnings to bank</span></div></foreignObject></g></g></g></g></g></svg>